<svg xmlns="http://www.w3.org/2000/svg" viewBox="0 0 316.6 106.3">
    <defs>
        <style>.cls-1{fill:#fff;}</style>
    </defs>
    <g id="Calque_2">
        <g id="Calque_1-2">
            <path class="cls-1"
                  d="M127.3,11.9A41.68,41.68,0,0,0,115.6,10c-3.2,0-5.2.9-6.2,2.5-1.4,1.7-1.5,5.3-1.5,11v.2h16.4V35.3H107.8V88.2H96.3V35.3H88.1V23.7h8.2V22.5q0-12.15,4.5-17.4c3-3.5,8-5.1,14.8-5.1a49.22,49.22,0,0,1,14.7,2.5Z"/>
            <path class="cls-1"
                  d="M216.2,88.2V35.3H197.7V23.7h29.7V88.2ZM221.9,0a6.88,6.88,0,0,1,5.2,2.2,7.17,7.17,0,0,1,2.1,5.2,7.4,7.4,0,0,1-2.1,5.3,7.17,7.17,0,0,1-5.2,2.1h0a7,7,0,0,1-5-2.2,7.26,7.26,0,0,1-2.2-5.2,7,7,0,0,1,2.2-5.2,7,7,0,0,1,5-2.2Z"/>
            <path class="cls-1"
                  d="M241.6,88.2V23.7h11.1V33.9c4.9-7.7,11.1-11.7,18.6-11.7a32.46,32.46,0,0,1,14.2,3.3l.8.4-4.5,10.7-.8-.4a26.25,26.25,0,0,0-10.3-2.6,15.07,15.07,0,0,0-7.7,2.2,25.62,25.62,0,0,0-7.1,6.6,36.79,36.79,0,0,0-3.1,4.5h0V88.2Z"/>
            <polygon class="cls-1"
                     points="25.6 16.5 25.6 5 0.1 5 0 106.3 25.6 106.3 25.6 94.8 11.6 94.8 11.6 16.5 25.6 16.5"/>
            <polygon class="cls-1"
                     points="291 94.8 291 106.3 316.5 106.3 316.6 5 291 5 291 16.5 305 16.5 305 94.8 291 94.8"/>
            <rect class="cls-1" x="136" y="23.7" width="50.3" height="11.5"/>
            <rect class="cls-1" x="136" y="76.7" width="50.3" height="11.5"/>
            <rect class="cls-1" x="136" y="50.2" width="50.3" height="11.5"/>
            <path class="cls-1"
                  d="M61.2,21.5c-7.5,0-13.7,1.6-18.5,5a16.67,16.67,0,0,0-7.3,14.1v.1A16.39,16.39,0,0,0,37,48.1a15.9,15.9,0,0,0,4.6,5.7A23.54,23.54,0,0,0,48,57.3c2.2.7,5.5,1.9,10.1,3.3,5.5,1.8,9,3.6,10.1,4.9a6.74,6.74,0,0,1,1.9,4.7c0,2.6-1.1,4.6-3.9,6.4s-6.4,2.7-11.1,2.7a33,33,0,0,1-15.2-3.6L38.2,75,35.8,86.3l1.1.5c5,2.5,11.1,3.6,18.5,3.6h0c7.5,0,13.8-1.8,18.7-5.5a18.46,18.46,0,0,0,7.7-15.4v-.1a19.33,19.33,0,0,0-2-8.8,18.57,18.57,0,0,0-6-6.5A38.91,38.91,0,0,0,64,49.7l-8.4-2.6c-3.7-1.1-6.1-2.4-7-3.4a5.08,5.08,0,0,1-1.5-3.6c0-2.3.9-3.9,3.4-5.4s5.9-2.3,10.5-2.3h0a37.85,37.85,0,0,1,11.5,1.9l2.7-10.9a60.85,60.85,0,0,0-14-1.9"/>
        </g>
    </g>
</svg>
